/* XPM */
static char *_79aa6bb81dd4b3ebf359c7dca7fac82vhdxIcpaC5uyRud4[] = {
/* columns rows colors chars-per-pixel */
"32 32 14 1 ",
"  c None",
". c #0C3730",
"X c #0A6353",
"o c #037C66",
"O c #098C75",
"+ c #06957C",
"@ c #199882",
"# c #09B496",
"$ c #08C2A1",
"% c #4AEDD1",
"& c #7DF6E1",
"* c #A0F7E8",
"= c #B9F6EC",
"- c white",
/* pixels */
"                                ",
"                                ",
"                                ",
"                                ",
"                                ",
"         ............           ",
"        .&&%%*$@X++oo.          ",
"       .&-%%*$##@X+Ooo.         ",
"      .&-%&%*$##@X+++oo.        ",
"     .&-%&%*$####@X+O+oo.       ",
"    .==&&%%*$####@X++O+XX.      ",
"    .&%====$$$$@@@@XXXXoo.      ",
"    .&&%&%%***XXXXX++O+oo.      ",
"     .&&%&%*$$$$$$X+O+oo.       ",
"      .&&%&*$####$XO+oo.        ",
"       .&&%*$####$X+oo.         ",
"        .&&%*$##$X+oo.          ",
"         .&&*$##$Xoo.           ",
"          .&&*$$Xoo.            ",
"           .&*$$Xo.             ",
"            .&*Xo.              ",
"             ....               ",
"                                ",
"                                ",
"                                ",
"                                ",
"                                ",
"                                ",
"                                ",
"                                ",
"                                ",
"                                "
};
