/* XPM */
static char *fbf3d84e238a476c8313a64eed564017CI3iE7wfpBbqF3g7[] = {
/* columns rows colors chars-per-pixel */
"32 32 5 1 ",
"  c None",
". c #2F2F2E",
"X c gray24",
"o c #9094A3",
"O c #BBC3E1",
/* pixels */
"                                ",
"                                ",
"                                ",
"    XXXX      XXXX      XXXX    ",
"   X.O..X    X.O..X    X.O..X   ",
"   ..Oo..    ..Oo..    ..Oo..   ",
"    .Oo.      .Oo.      .Oo.    ",
"                                ",
"                                ",
"                                ",
"                                ",
"                                ",
"                                ",
"    XXXX      XXXX      XXXX    ",
"   X.O..X    X.O..X    X.O..X   ",
"   ..Oo..    ..Oo..    ..Oo..   ",
"    .Oo.      .Oo.      .Oo.    ",
"                                ",
"                                ",
"                                ",
"                                ",
"                                ",
"                                ",
"    XXXX      XXXX      XXXX    ",
"   X.O..X    X.O..X    X.O..X   ",
"   ..Oo..    ..Oo..    ..Oo..   ",
"    .Oo.      .Oo.      .Oo.    ",
"                                ",
"                                ",
"                                ",
"                                ",
"                                "
};
